<svg width="32" height="33" viewBox="0 0 32 33" fill="none" xmlns="http://www.w3.org/2000/svg">
<rect width="32" height="32" rx="5" fill="#D9D9D9"/>
<rect x="1" y="1" width="30" height="30" rx="5" fill="#282828"/>
<path d="M14.8068 18.6392V18.3977C14.8116 17.5691 14.8849 16.9086 15.027 16.4162C15.1738 15.9238 15.3868 15.526 15.6662 15.223C15.9455 14.92 16.2817 14.6454 16.6747 14.3991C16.9683 14.2098 17.2311 14.0133 17.4631 13.8097C17.6951 13.6061 17.8797 13.3812 18.017 13.1349C18.1544 12.884 18.223 12.6046 18.223 12.2969C18.223 11.9702 18.1449 11.6837 17.9886 11.4375C17.8324 11.1913 17.6217 11.0019 17.3565 10.8693C17.0961 10.7367 16.8073 10.6705 16.4901 10.6705C16.1823 10.6705 15.8911 10.7391 15.6165 10.8764C15.3419 11.009 15.117 11.2079 14.9418 11.473C14.7666 11.7334 14.6719 12.0578 14.6577 12.446H11.7599C11.7836 11.4991 12.0109 10.7178 12.4418 10.1023C12.8726 9.48201 13.4432 9.02036 14.1534 8.71733C14.8636 8.40956 15.6473 8.25568 16.5043 8.25568C17.4465 8.25568 18.2798 8.41193 19.0043 8.72443C19.7287 9.0322 20.2969 9.47964 20.7088 10.0668C21.1207 10.6539 21.3267 11.3617 21.3267 12.1903C21.3267 12.7443 21.2344 13.2367 21.0497 13.6676C20.8698 14.0937 20.6165 14.4725 20.2898 14.804C19.9631 15.1307 19.5772 15.4266 19.1321 15.6918C18.758 15.9143 18.4503 16.1463 18.2088 16.3878C17.9721 16.6293 17.7945 16.9086 17.6761 17.2259C17.5625 17.5431 17.5033 17.9337 17.4986 18.3977V18.6392H14.8068ZM16.2131 23.1847C15.7396 23.1847 15.3348 23.0189 14.9986 22.6875C14.6671 22.3513 14.5038 21.9489 14.5085 21.4801C14.5038 21.0161 14.6671 20.6184 14.9986 20.2869C15.3348 19.9555 15.7396 19.7898 16.2131 19.7898C16.6629 19.7898 17.0582 19.9555 17.3991 20.2869C17.7401 20.6184 17.9129 21.0161 17.9176 21.4801C17.9129 21.7926 17.83 22.0791 17.669 22.3395C17.5128 22.5952 17.3068 22.8011 17.0511 22.9574C16.7955 23.1089 16.5161 23.1847 16.2131 23.1847Z" fill="white"/>
</svg>
